<svg width="8.616455" height="16.000000" viewBox="0 0 8.61646 16" fill="none" xmlns="http://www.w3.org/2000/svg" xmlns:xlink="http://www.w3.org/1999/xlink">
	<desc>
			Created with Pixso.
	</desc>
	<defs/>
	<path id="Vector" d="M0.180664 0.180786C0.238037 0.123413 0.305908 0.0780029 0.380615 0.0469971C0.455322 0.0159912 0.5354 0 0.616455 0C0.697266 0 0.777588 0.0159912 0.852295 0.0469971C0.927002 0.0780029 0.994873 0.123413 1.052 0.180786L8.43579 7.56458C8.49316 7.6217 8.53857 7.68958 8.56958 7.76428C8.60059 7.83911 8.61646 7.91919 8.61646 8.00012C8.61646 8.08105 8.60059 8.16125 8.56958 8.23596C8.53857 8.31079 8.49316 8.37866 8.43579 8.43579L1.052 15.8196C0.936523 15.9351 0.779785 16 0.616455 16C0.453125 16 0.296387 15.9351 0.180664 15.8196C0.0651855 15.704 0.000244141 15.5474 0.000244141 15.3839C0.000244141 15.2205 0.0651855 15.0638 0.180664 14.9482L7.13013 8.00012L0.180664 1.052C0.123535 0.994873 0.078125 0.927002 0.046875 0.852295C0.0158691 0.777466 0 0.697388 0 0.616455C0 0.535522 0.0158691 0.455322 0.046875 0.380615C0.078125 0.305786 0.123535 0.237915 0.180664 0.180786Z" fill="#BDBDBD" fill-opacity="1.000000" fill-rule="evenodd"/>
</svg>
