<svg width="14.000000" height="14.000000" viewBox="0 0 14 14" fill="none" xmlns="http://www.w3.org/2000/svg" xmlns:xlink="http://www.w3.org/1999/xlink">
	<desc>
			Created with Pixso.
	</desc>
	<defs/>
	<path id="Vector" d="M0 1.5C0 1.10217 0.157959 0.720642 0.439453 0.439331C0.720703 0.15802 1.10229 0 1.5 0L4.5 0C4.89771 0 5.2793 0.15802 5.56055 0.439331C5.84204 0.720642 6 1.10217 6 1.5L6 4.5C6 4.89783 5.84204 5.27936 5.56055 5.56067C5.2793 5.84198 4.89771 6 4.5 6L1.5 6C1.10229 6 0.720703 5.84198 0.439453 5.56067C0.157959 5.27936 0 4.89783 0 4.5L0 1.5ZM8 1.5C8 1.10217 8.15796 0.720642 8.43945 0.439331C8.7207 0.15802 9.10229 0 9.5 0L12.5 0C12.8977 0 13.2793 0.15802 13.5605 0.439331C13.842 0.720642 14 1.10217 14 1.5L14 4.5C14 4.89783 13.842 5.27936 13.5605 5.56067C13.2793 5.84198 12.8977 6 12.5 6L9.5 6C9.10229 6 8.7207 5.84198 8.43945 5.56067C8.15796 5.27936 8 4.89783 8 4.5L8 1.5ZM0 9.5C0 9.10217 0.157959 8.72064 0.439453 8.43933C0.720703 8.15802 1.10229 8 1.5 8L4.5 8C4.89771 8 5.2793 8.15802 5.56055 8.43933C5.84204 8.72064 6 9.10217 6 9.5L6 12.5C6 12.8978 5.84204 13.2794 5.56055 13.5607C5.2793 13.842 4.89771 14 4.5 14L1.5 14C1.10229 14 0.720703 13.842 0.439453 13.5607C0.157959 13.2794 0 12.8978 0 12.5L0 9.5ZM8 9.5C8 9.10217 8.15796 8.72064 8.43945 8.43933C8.7207 8.15802 9.10229 8 9.5 8L12.5 8C12.8977 8 13.2793 8.15802 13.5605 8.43933C13.842 8.72064 14 9.10217 14 9.5L14 12.5C14 12.8978 13.842 13.2794 13.5605 13.5607C13.2793 13.842 12.8977 14 12.5 14L9.5 14C9.10229 14 8.7207 13.842 8.43945 13.5607C8.15796 13.2794 8 12.8978 8 12.5L8 9.5Z" fill="#252B42" fill-opacity="1.000000" fill-rule="nonzero"/>
</svg>
