<svg width="16.001953" height="16.001953" viewBox="0 0 16.002 16.002" fill="none" xmlns="http://www.w3.org/2000/svg" xmlns:xlink="http://www.w3.org/1999/xlink">
	<desc>
			Created with Pixso.
	</desc>
	<defs/>
	<path id="Vector" d="M16.002 8.05005C16.002 3.604 12.4199 0 8.00195 0C3.58203 0.000976562 0 3.604 0 8.05103C0 12.068 2.92603 15.3979 6.75 16.002L6.75 10.377L4.71997 10.377L4.71997 8.05103L6.75195 8.05103L6.75195 6.276C6.75195 4.25903 7.94702 3.14502 9.77393 3.14502C10.6499 3.14502 11.5649 3.302 11.5649 3.302L11.5649 5.28198L10.5559 5.28198C9.56299 5.28198 9.25293 5.90295 9.25293 6.54004L9.25293 8.05005L11.4709 8.05005L11.1169 10.376L9.25195 10.376L9.25195 16.001C13.0759 15.397 16.002 12.067 16.002 8.05005Z" fill="#FFFFFF" fill-opacity="1.000000" fill-rule="nonzero"/>
</svg>
