<svg width="23.000000" height="23.000000" viewBox="0 0 23 23" fill="none" xmlns="http://www.w3.org/2000/svg" xmlns:xlink="http://www.w3.org/1999/xlink">
	<desc>
			Created with Pixso.
	</desc>
	<defs/>
	<path id="Vector" d="M23 11.5704C23 5.18005 17.8516 0 11.5015 0C5.14844 0.00146484 0 5.18005 0 11.5719C0 17.3456 4.20557 22.1318 9.7019 23L9.7019 14.915L6.78418 14.915L6.78418 11.5719L9.70483 11.5719L9.70483 9.02063C9.70483 6.12158 11.4224 4.52039 14.0483 4.52039C15.3074 4.52039 16.6226 4.74597 16.6226 4.74597L16.6226 7.59192L15.1724 7.59192C13.7451 7.59192 13.2996 8.4845 13.2996 9.40002L13.2996 11.5704L16.4875 11.5704L15.9788 14.9137L13.2981 14.9137L13.2981 22.9985C18.7944 22.1304 23 17.3441 23 11.5704Z" fill="#23A6F0" fill-opacity="1.000000" fill-rule="evenodd"/>
</svg>
