<svg width="16.000000" height="16.000000" viewBox="0 0 16 16" fill="none" xmlns="http://www.w3.org/2000/svg" xmlns:xlink="http://www.w3.org/1999/xlink">
	<desc>
			Created with Pixso.
	</desc>
	<defs/>
	<path id="Vector" d="M8 0C5.8291 0 5.55591 0.0100098 4.70288 0.0479736C3.8501 0.0880127 3.26904 0.222046 2.76001 0.420044C2.22607 0.62085 1.74243 0.935791 1.34302 1.34302C0.936035 1.74268 0.621094 2.2262 0.419922 2.76001C0.221924 3.26794 0.0869141 3.84998 0.0480957 4.69995C0.0100098 5.55505 0 5.82703 0 8.00098C0 10.173 0.0100098 10.4449 0.0480957 11.298C0.0878906 12.15 0.221924 12.731 0.419922 13.24C0.625 13.766 0.897949 14.212 1.34302 14.657C1.78711 15.1021 2.23291 15.376 2.75903 15.58C3.26904 15.778 3.84912 15.913 4.70093 15.952C5.55493 15.99 5.8269 16 8 16C10.1731 16 10.4441 15.99 11.2981 15.952C12.1489 15.912 12.7319 15.778 13.241 15.58C13.7747 15.379 14.2578 15.0641 14.657 14.657C15.1021 14.212 15.375 13.766 15.5801 13.24C15.7771 12.731 15.9121 12.15 15.9519 11.298C15.99 10.4449 16 10.173 16 8C16 5.82703 15.99 5.55505 15.9519 4.70105C15.9121 3.84998 15.7771 3.26794 15.5801 2.76001C15.3789 2.2262 15.064 1.74268 14.657 1.34302C14.2576 0.935669 13.7739 0.620605 13.24 0.420044C12.73 0.222046 12.1479 0.0870361 11.2971 0.0479736C10.4431 0.0100098 10.1721 0 7.99805 0L8.00098 0L8 0ZM7.28296 1.44202L8.00098 1.44202C10.137 1.44202 10.3899 1.44897 11.2329 1.48804C12.0129 1.52295 12.437 1.65405 12.719 1.76294C13.092 1.90796 13.3589 2.08203 13.6389 2.36206C13.9189 2.64197 14.092 2.90796 14.2371 3.28198C14.3469 3.56299 14.4771 3.98706 14.512 4.76697C14.551 5.60999 14.5591 5.86304 14.5591 7.99805C14.5591 10.1331 14.551 10.387 14.512 11.23C14.4771 12.01 14.3459 12.433 14.2371 12.715C14.1086 13.0624 13.9041 13.3765 13.6379 13.634C13.3579 13.9139 13.092 14.087 12.718 14.2321C12.438 14.342 12.0139 14.472 11.2329 14.5081C10.3899 14.546 10.137 14.5551 8.00098 14.5551C5.86499 14.5551 5.61108 14.546 4.76807 14.5081C3.98804 14.472 3.56494 14.342 3.28296 14.2321C2.93555 14.1039 2.62109 13.8995 2.36304 13.634C2.09668 13.376 1.8916 13.0616 1.76294 12.714C1.65405 12.433 1.52295 12.009 1.48804 11.229C1.44995 10.386 1.44189 10.1331 1.44189 7.99597C1.44189 5.85999 1.44995 5.60803 1.48804 4.76501C1.52393 3.98499 1.65405 3.56104 1.76392 3.27905C1.90894 2.90601 2.08301 2.63904 2.36304 2.35901C2.64307 2.07898 2.90894 1.90601 3.28296 1.76099C3.56494 1.651 3.98804 1.521 4.76807 1.48499C5.5061 1.45105 5.79199 1.44104 7.28296 1.43994L7.28296 1.44202ZM12.271 2.77002C12.145 2.77002 12.02 2.7948 11.9036 2.84302C11.7871 2.89136 11.6814 2.96204 11.5923 3.05115C11.5029 3.14038 11.4324 3.24609 11.384 3.36267C11.3359 3.47913 11.311 3.60388 11.311 3.72998C11.311 3.85608 11.3359 3.98096 11.384 4.09741C11.4324 4.21387 11.5029 4.3197 11.5923 4.40881C11.6814 4.49792 11.7871 4.56873 11.9036 4.61694C12.02 4.66516 12.145 4.68994 12.271 4.68994C12.5256 4.68994 12.7698 4.58887 12.9497 4.40881C13.1299 4.22876 13.231 3.98462 13.231 3.72998C13.231 3.47534 13.1299 3.2312 12.9497 3.05115C12.7698 2.87109 12.5256 2.77002 12.271 2.77002ZM8.00098 3.89197C7.45605 3.88354 6.91479 3.98352 6.40894 4.18616C5.90308 4.38879 5.44263 4.69006 5.0542 5.07239C4.66577 5.45483 4.35742 5.91052 4.14673 6.41321C3.93628 6.91589 3.82788 7.45544 3.82788 8.00049C3.82788 8.54553 3.93628 9.08508 4.14673 9.58777C4.35742 10.0905 4.66577 10.5463 5.0542 10.9286C5.44263 11.3109 5.90308 11.6122 6.40894 11.8148C6.91479 12.0175 7.45605 12.1176 8.00098 12.109C9.07959 12.0922 10.1082 11.6519 10.865 10.8833C11.6218 10.1146 12.0459 9.07922 12.0459 8.00049C12.0459 6.92188 11.6218 5.88635 10.865 5.1178C10.1082 4.34912 9.07959 3.90881 8.00098 3.89197ZM8.00098 5.33301C8.70825 5.33301 9.38672 5.61401 9.88696 6.11414C10.387 6.61426 10.668 7.29272 10.668 8C10.668 8.70728 10.387 9.38574 9.88696 9.88586C9.38672 10.386 8.70825 10.667 8.00098 10.667C7.2937 10.667 6.61523 10.386 6.11523 9.88586C5.61499 9.38574 5.33398 8.70728 5.33398 8C5.33398 7.29272 5.61499 6.61426 6.11523 6.11414C6.61523 5.61401 7.2937 5.33301 8.00098 5.33301Z" fill="#FFFFFF" fill-opacity="1.000000" fill-rule="nonzero"/>
</svg>
