<svg width="22.000000" height="22.000000" viewBox="0 0 22 22" fill="none" xmlns="http://www.w3.org/2000/svg" xmlns:xlink="http://www.w3.org/1999/xlink">
	<desc>
			Created with Pixso.
	</desc>
	<defs/>
	<path id="Vector" d="M11 0C8.01489 0 7.6394 0.0137939 6.46655 0.06604C5.2937 0.120972 4.49487 0.305298 3.79492 0.577515C3.06079 0.853638 2.396 1.28674 1.84668 1.84668C1.28711 2.39624 0.854004 3.06104 0.577393 3.79504C0.305176 4.49353 0.119629 5.2937 0.065918 6.46252C0.0136719 7.63818 0 8.01208 0 11.0013C0 13.9879 0.0136719 14.3618 0.065918 15.5348C0.121094 16.7063 0.305176 17.5051 0.577393 18.205C0.859375 18.9282 1.23486 19.5415 1.84668 20.1533C2.45703 20.7653 3.07031 21.142 3.7937 21.4225C4.49487 21.6947 5.29248 21.8804 6.46387 21.934C7.63818 21.9862 8.01221 22 11 22C13.9878 22 14.3606 21.9862 15.5347 21.934C16.7048 21.879 17.5066 21.6947 18.2063 21.4225C18.9399 21.1462 19.6045 20.7131 20.1533 20.1533C20.7651 19.5415 21.1406 18.9282 21.4226 18.205C21.6934 17.5051 21.8789 16.7063 21.9341 15.5348C21.9863 14.3618 22 13.9879 22 11C22 8.01208 21.9863 7.63818 21.9341 6.46387C21.8789 5.2937 21.6934 4.49353 21.4226 3.79504C21.146 3.06104 20.7129 2.39624 20.1533 1.84668C19.6042 1.2865 18.9392 0.853394 18.2051 0.577515C17.5037 0.305298 16.7036 0.119629 15.5334 0.06604C14.3591 0.0137939 13.9866 0 10.9973 0L11.0015 0L11 0ZM10.0142 1.98279L11.0015 1.98279C13.9385 1.98279 14.2861 1.99243 15.4453 2.04602C16.5178 2.09412 17.1008 2.27429 17.4885 2.42407C18.0015 2.62354 18.3687 2.86279 18.7537 3.2478C19.1387 3.63269 19.3765 3.99854 19.5759 4.5127C19.7271 4.89917 19.9058 5.48218 19.9541 6.55457C20.0076 7.71375 20.0186 8.06165 20.0186 10.9972C20.0186 13.9329 20.0076 14.2821 19.9541 15.4413C19.9058 16.5138 19.7258 17.0953 19.5759 17.4832C19.3994 17.9607 19.1179 18.3926 18.7522 18.7467C18.3672 19.1317 18.0015 19.3696 17.4873 19.569C17.1023 19.7202 16.5193 19.899 15.4453 19.9485C14.2861 20.0007 13.9385 20.0132 11.0015 20.0132C8.06445 20.0132 7.71509 20.0007 6.55591 19.9485C5.4834 19.899 4.90186 19.7202 4.51416 19.569C4.03638 19.3929 3.604 19.1119 3.24902 18.7467C2.88306 18.3921 2.60107 17.9597 2.42407 17.4817C2.27417 17.0953 2.09424 16.5123 2.0459 15.4398C1.99365 14.2808 1.98267 13.9329 1.98267 10.9945C1.98267 8.0575 1.99365 7.71106 2.0459 6.55188C2.09546 5.47937 2.27417 4.89636 2.42554 4.50867C2.62476 3.99573 2.86401 3.62866 3.24902 3.24365C3.63403 2.85864 3.99976 2.62073 4.51416 2.42139C4.90186 2.27014 5.4834 2.09143 6.55591 2.04187C7.5708 1.99512 7.96411 1.98132 10.0142 1.97998L10.0142 1.98279ZM16.8726 3.80872C16.6992 3.80872 16.5276 3.8429 16.3674 3.90918C16.2073 3.97559 16.0618 4.07275 15.9392 4.19531C15.8167 4.31799 15.7195 4.4635 15.6531 4.62366C15.5867 4.78381 15.5527 4.95544 15.5527 5.12878C15.5527 5.30212 15.5867 5.47375 15.6531 5.63391C15.7195 5.79407 15.8167 5.93958 15.9392 6.06213C16.0618 6.18469 16.2073 6.28198 16.3674 6.34827C16.5276 6.41455 16.6992 6.44873 16.8726 6.44873C17.2227 6.44873 17.5583 6.30969 17.8059 6.06213C18.0535 5.81458 18.1926 5.47888 18.1926 5.12878C18.1926 4.77869 18.0535 4.44287 17.8059 4.19531C17.5583 3.94788 17.2227 3.80872 16.8726 3.80872ZM11.0015 5.35144C10.2522 5.33984 9.50806 5.47729 8.81226 5.75598C8.1167 6.03455 7.4834 6.44885 6.94946 6.97461C6.41553 7.50037 5.99146 8.12708 5.7019 8.81824C5.41235 9.5094 5.26343 10.2513 5.26343 11.0007C5.26343 11.75 5.41235 12.4919 5.7019 13.1831C5.99146 13.8744 6.41553 14.5011 6.94946 15.0267C7.4834 15.5525 8.1167 15.9668 8.81226 16.2455C9.50806 16.524 10.2522 16.6616 11.0015 16.6499C12.4844 16.6267 13.8987 16.0214 14.9395 14.9645C15.98 13.9076 16.5632 12.4839 16.5632 11.0007C16.5632 9.51746 15.98 8.09387 14.9395 7.03687C13.8987 5.97998 12.4844 5.37463 11.0015 5.35144ZM11.0015 7.33289C11.9739 7.33289 12.9067 7.71924 13.5945 8.40698C14.2822 9.09473 14.6685 10.0275 14.6685 11C14.6685 11.9725 14.2822 12.9053 13.5945 13.593C12.9067 14.2808 11.9739 14.6671 11.0015 14.6671C10.0288 14.6671 9.09595 14.2808 8.40845 13.593C7.7207 12.9053 7.33423 11.9725 7.33423 11C7.33423 10.0275 7.7207 9.09473 8.40845 8.40698C9.09595 7.71924 10.0288 7.33289 11.0015 7.33289Z" fill="#23A6F0" fill-opacity="1.000000" fill-rule="nonzero"/>
</svg>
