<svg width="16.000000" height="16.000000" viewBox="0 0 16 16" fill="none" xmlns="http://www.w3.org/2000/svg" xmlns:xlink="http://www.w3.org/1999/xlink">
	<desc>
			Created with Pixso.
	</desc>
	<defs>
		<clipPath id="clip3006_10942">
			<rect id="icon" width="16.000000" height="16.000000" fill="white" fill-opacity="0"/>
		</clipPath>
	</defs>
	<rect id="icon" width="16.000000" height="16.000000" fill="#FFFFFF" fill-opacity="0"/>
	<g clip-path="url(#clip3006_10942)">
		<path id="Vector" d="M4.50073 12.5009C4.50073 12.3683 4.55322 12.2411 4.64697 12.1473C4.74097 12.0536 4.86792 12.0009 5.00073 12.0009L14.0007 12.0009C14.1333 12.0009 14.2605 12.0536 14.3542 12.1473C14.448 12.2411 14.5007 12.3683 14.5007 12.5009C14.5007 12.6335 14.448 12.7607 14.3542 12.8544C14.2605 12.9482 14.1333 13.0009 14.0007 13.0009L5.00073 13.0009C4.86792 13.0009 4.74097 12.9482 4.64697 12.8544C4.55322 12.7607 4.50073 12.6335 4.50073 12.5009ZM4.50073 8.50092C4.50073 8.36829 4.55322 8.24109 4.64697 8.14734C4.74097 8.05359 4.86792 8.00092 5.00073 8.00092L14.0007 8.00092C14.1333 8.00092 14.2605 8.05359 14.3542 8.14734C14.448 8.24109 14.5007 8.36829 14.5007 8.50092C14.5007 8.63348 14.448 8.76068 14.3542 8.85443C14.2605 8.94824 14.1333 9.00092 14.0007 9.00092L5.00073 9.00092C4.86792 9.00092 4.74097 8.94824 4.64697 8.85443C4.55322 8.76068 4.50073 8.63348 4.50073 8.50092ZM4.50073 4.50092C4.50073 4.36829 4.55322 4.24109 4.64697 4.14734C4.74097 4.05359 4.86792 4.00092 5.00073 4.00092L14.0007 4.00092C14.1333 4.00092 14.2605 4.05359 14.3542 4.14734C14.448 4.24109 14.5007 4.36829 14.5007 4.50092C14.5007 4.63348 14.448 4.76068 14.3542 4.85443C14.2605 4.94824 14.1333 5.00092 14.0007 5.00092L5.00073 5.00092C4.86792 5.00092 4.74097 4.94824 4.64697 4.85443C4.55322 4.76068 4.50073 4.63348 4.50073 4.50092ZM3.35474 3.14691C3.40112 3.19336 3.43823 3.24854 3.46338 3.30927C3.48853 3.37 3.50146 3.43512 3.50146 3.50092C3.50146 3.56665 3.48853 3.63177 3.46338 3.6925C3.43823 3.7533 3.40112 3.80847 3.35474 3.85492L1.85474 5.35492C1.80811 5.40143 1.75293 5.43842 1.69238 5.46362C1.63159 5.48883 1.56641 5.50177 1.50073 5.50177C1.43481 5.50177 1.36963 5.48883 1.30908 5.46362C1.24829 5.43842 1.19312 5.40143 1.14673 5.35492L0.646729 4.85492C0.600098 4.80841 0.563232 4.75323 0.538086 4.6925C0.512939 4.63171 0.5 4.56665 0.5 4.50092C0.5 4.43512 0.512939 4.37006 0.538086 4.30933C0.563232 4.2486 0.600098 4.19336 0.646729 4.14691C0.693115 4.1004 0.748291 4.06354 0.809082 4.03839C0.869873 4.01318 0.934814 4.00024 1.00073 4.00024C1.06641 4.00024 1.13159 4.01318 1.19214 4.03839C1.25293 4.06354 1.30811 4.1004 1.35474 4.14691L1.50073 4.29388L2.64673 3.14691C2.69312 3.10034 2.74829 3.06342 2.80908 3.03821C2.86963 3.013 2.93481 3 3.00073 3C3.06641 3 3.13159 3.013 3.19238 3.03821C3.25293 3.06342 3.30811 3.10034 3.35474 3.14691ZM3.35474 7.14691C3.40112 7.19336 3.43823 7.24854 3.46338 7.30927C3.48853 7.37 3.50146 7.43512 3.50146 7.50092C3.50146 7.56665 3.48853 7.63177 3.46338 7.6925C3.43823 7.7533 3.40112 7.80847 3.35474 7.85492L1.85474 9.35492C1.80811 9.40143 1.75293 9.43842 1.69238 9.46362C1.63159 9.48883 1.56641 9.50177 1.50073 9.50177C1.43481 9.50177 1.36963 9.48883 1.30908 9.46362C1.24829 9.43842 1.19312 9.40143 1.14673 9.35492L0.646729 8.85492C0.552734 8.76099 0.5 8.63367 0.5 8.50092C0.5 8.3681 0.552734 8.24078 0.646729 8.14691C0.740479 8.05298 0.86792 8.00024 1.00073 8.00024C1.1333 8.00024 1.26074 8.05298 1.35474 8.14691L1.50073 8.29388L2.64673 7.14691C2.69312 7.10034 2.74829 7.06342 2.80908 7.03821C2.86963 7.013 2.93481 7 3.00073 7C3.06641 7 3.13159 7.013 3.19238 7.03821C3.25293 7.06342 3.30811 7.10034 3.35474 7.14691ZM3.35474 11.1469C3.40112 11.1934 3.43823 11.2485 3.46338 11.3093C3.48853 11.37 3.50146 11.4351 3.50146 11.5009C3.50146 11.5667 3.48853 11.6318 3.46338 11.6925C3.43823 11.7533 3.40112 11.8085 3.35474 11.8549L1.85474 13.3549C1.80811 13.4014 1.75293 13.4384 1.69238 13.4636C1.63159 13.4888 1.56641 13.5018 1.50073 13.5018C1.43481 13.5018 1.36963 13.4888 1.30908 13.4636C1.24829 13.4384 1.19312 13.4014 1.14673 13.3549L0.646729 12.8549C0.552734 12.761 0.5 12.6337 0.5 12.5009C0.5 12.3681 0.552734 12.2408 0.646729 12.1469C0.740479 12.053 0.86792 12.0002 1.00073 12.0002C1.1333 12.0002 1.26074 12.053 1.35474 12.1469L1.50073 12.2939L2.64673 11.1469C2.69312 11.1003 2.74829 11.0634 2.80908 11.0382C2.86963 11.013 2.93481 11 3.00073 11C3.06641 11 3.13159 11.013 3.19238 11.0382C3.25293 11.0634 3.30811 11.1003 3.35474 11.1469Z" fill="#737373" fill-opacity="1.000000" fill-rule="evenodd"/>
	</g>
</svg>
