<svg width="12.000000" height="12.000000" viewBox="0 0 12 12" fill="none" xmlns="http://www.w3.org/2000/svg" xmlns:xlink="http://www.w3.org/1999/xlink">
	<desc>
			Created with Pixso.
	</desc>
	<defs/>
	<path id="Vector" d="M6 6C6.79565 6 7.55859 5.68396 8.12134 5.12134C8.68384 4.55872 9 3.79565 9 3C9 2.20435 8.68384 1.44128 8.12134 0.878662C7.55859 0.31604 6.79565 0 6 0C5.20435 0 4.44141 0.31604 3.87866 0.878662C3.31616 1.44128 3 2.20435 3 3C3 3.79565 3.31616 4.55872 3.87866 5.12134C4.44141 5.68396 5.20435 6 6 6ZM8 3C8 3.5304 7.78931 4.03918 7.41431 4.41418C7.03906 4.78931 6.53052 5 6 5C5.46948 5 4.96094 4.78931 4.58569 4.41418C4.21069 4.03918 4 3.5304 4 3C4 2.4696 4.21069 1.96082 4.58569 1.58582C4.96094 1.21069 5.46948 1 6 1C6.53052 1 7.03906 1.21069 7.41431 1.58582C7.78931 1.96082 8 2.4696 8 3ZM12 11C12 12 11 12 11 12L1 12C1 12 0 12 0 11C0 10 1 7 6 7C11 7 12 10 12 11ZM11 10.996C10.999 10.75 10.8459 10.01 10.168 9.33203C9.51611 8.68005 8.28906 8 6 8C3.70996 8 2.48389 8.68005 1.83203 9.33203C1.15405 10.01 1.00195 10.75 1 10.996L11 10.996Z" fill="#23A6F0" fill-opacity="1.000000" fill-rule="nonzero"/>
</svg>
