<svg width="16.000000" height="12.000000" viewBox="0 0 16 12" fill="none" xmlns="http://www.w3.org/2000/svg" xmlns:xlink="http://www.w3.org/1999/xlink">
	<desc>
			Created with Pixso.
	</desc>
	<defs/>
	<path id="Vector" d="M0 2C0 1.4696 0.210693 0.960815 0.585815 0.585815C0.960815 0.210693 1.4696 0 2 0L14 0C14.5304 0 15.0392 0.210693 15.4142 0.585815C15.7893 0.960815 16 1.4696 16 2L16 10C16 10.5304 15.7893 11.0392 15.4142 11.4142C15.0392 11.7893 14.5304 12 14 12L2 12C1.4696 12 0.960815 11.7893 0.585815 11.4142C0.210693 11.0392 0 10.5304 0 10L0 2ZM2 1C1.73474 1 1.48047 1.10535 1.29285 1.29285C1.10535 1.48047 1 1.73474 1 2L1 2.21704L8 6.41699L15 2.21704L15 2C15 1.73474 14.8947 1.48047 14.7072 1.29285C14.5195 1.10535 14.2653 1 14 1L2 1ZM15 3.38306L10.2419 6.23804L15 9.11401L15 3.38403L15 3.38306ZM14.9659 10.261L9.271 6.81995L8 7.58301L6.72803 6.81995L1.03406 10.26C1.09119 10.4724 1.2168 10.66 1.39148 10.7938C1.56616 10.9276 1.78003 11.0001 2 11L14 11C14.2198 11.0001 14.4336 10.9279 14.6083 10.7942C14.7828 10.6606 14.9086 10.4733 14.9659 10.261ZM1 9.11401L5.75806 6.23804L1 3.38306L1 9.11304L1 9.11401Z" fill="#FFFFFF" fill-opacity="1.000000" fill-rule="nonzero"/>
</svg>
