<svg width="16.000488" height="16.000366" viewBox="0 0 16.0005 16.0004" fill="none" xmlns="http://www.w3.org/2000/svg" xmlns:xlink="http://www.w3.org/1999/xlink">
	<desc>
			Created with Pixso.
	</desc>
	<defs/>
	<path id="Vector" d="M3.65442 1.32825C3.59546 1.25232 3.52087 1.18982 3.43591 1.1449C3.35083 1.09998 3.2572 1.07373 3.16113 1.06775C3.06519 1.06177 2.96899 1.07629 2.87903 1.11035C2.78906 1.14441 2.7074 1.19727 2.63953 1.26526L1.60547 2.30029C1.12244 2.7843 0.944458 3.46924 1.15552 4.07031C2.03125 6.55786 3.45581 8.81641 5.32349 10.6783C7.18542 12.546 9.44385 13.9706 11.9315 14.8463C12.5325 15.0573 13.2175 14.8793 13.7014 14.3962L14.7355 13.3623C14.8035 13.2943 14.8563 13.2126 14.8904 13.1227C14.9244 13.0327 14.939 12.9365 14.9331 12.8406C14.9271 12.7446 14.9008 12.651 14.8558 12.5659C14.8109 12.4808 14.7484 12.4064 14.6725 12.3473L12.3655 10.5533C12.2843 10.4904 12.1899 10.4467 12.0895 10.4255C11.989 10.4044 11.8851 10.4064 11.7855 10.4313L9.59546 10.9783C9.3031 11.0514 8.99695 11.0475 8.70654 10.967C8.41614 10.8866 8.15149 10.7323 7.93848 10.5193L5.48242 8.06226C5.26929 7.84937 5.11475 7.58472 5.03418 7.29443C4.95361 7.00403 4.94958 6.69775 5.02246 6.40527L5.57043 4.21533C5.59534 4.11572 5.59729 4.01172 5.57617 3.91125C5.55505 3.81079 5.51135 3.71643 5.44849 3.63525L3.65442 1.32825ZM1.88452 0.511353C2.05945 0.336304 2.26965 0.200439 2.50122 0.112915C2.73267 0.0252686 2.98022 -0.012085 3.22729 0.00341797C3.47424 0.0187988 3.71521 0.0865479 3.93408 0.202271C4.15283 0.317993 4.3446 0.478882 4.49646 0.674316L6.29053 2.98035C6.61951 3.40332 6.73547 3.95435 6.60547 4.47424L6.05847 6.66431C6.03015 6.77771 6.03174 6.89648 6.06287 7.00916C6.09412 7.12183 6.15393 7.22461 6.23645 7.30725L8.69348 9.76428C8.77637 9.84705 8.87915 9.90698 8.99207 9.93811C9.10486 9.96936 9.22388 9.9707 9.33752 9.94226L11.5265 9.39526C11.7831 9.33118 12.0509 9.32617 12.3097 9.38074C12.5686 9.4353 12.8116 9.54797 13.0205 9.71033L15.3264 11.5043C16.1555 12.1493 16.2314 13.3743 15.4895 14.1152L14.4554 15.1493C13.7155 15.8893 12.6095 16.2144 11.5785 15.8513C8.9397 14.9229 6.5437 13.4121 4.56848 11.4313C2.58777 9.4563 1.07703 7.06079 0.148438 4.42224C-0.213501 3.39233 0.11145 2.28528 0.85144 1.54529L1.8855 0.511353L1.88452 0.511353Z" fill="#FFFFFF" fill-opacity="1.000000" fill-rule="nonzero"/>
</svg>
