<svg width="16.000000" height="13.000732" viewBox="0 0 16 13.0007" fill="none" xmlns="http://www.w3.org/2000/svg" xmlns:xlink="http://www.w3.org/1999/xlink">
	<desc>
			Created with Pixso.
	</desc>
	<defs/>
	<path id="Vector" d="M5.02588 13.0007C11.064 13.0007 14.3669 7.99768 14.3669 3.66675C14.3669 3.52673 14.3669 3.38464 14.3611 3.24475C15.0042 2.77917 15.5591 2.20288 16 1.54272C15.3994 1.8075 14.7627 1.98206 14.1111 2.06067C14.7976 1.65039 15.3118 1.00464 15.5581 0.243652C14.9131 0.625854 14.207 0.894043 13.4709 1.03674C12.9761 0.509766 12.3213 0.160645 11.6082 0.043457C10.8948 -0.0737305 10.1628 0.0476074 9.52539 0.388672C8.88794 0.729614 8.38086 1.27136 8.08252 1.92981C7.78418 2.58813 7.71118 3.32666 7.875 4.03064C6.56982 3.96521 5.29272 3.62622 4.12695 3.0354C2.96118 2.4447 1.93262 1.61548 1.10791 0.601685C0.689453 1.32483 0.561523 2.18005 0.750732 2.99402C0.939697 3.80786 1.4314 4.51917 2.12598 4.98364C1.60547 4.96606 1.09644 4.82629 0.639893 4.57568L0.639893 4.62073C0.640869 5.37817 0.90332 6.11206 1.38281 6.69849C1.86255 7.28479 2.52979 7.68762 3.27197 7.83875C2.99023 7.91626 2.69922 7.95496 2.40698 7.95374C2.20093 7.95435 1.99536 7.93518 1.79297 7.89673C2.00269 8.54871 2.41138 9.1189 2.96118 9.52722C3.51123 9.93542 4.17505 10.1615 4.86011 10.1737C3.69653 11.0875 2.25952 11.5831 0.780029 11.5807C0.519287 11.5818 0.258789 11.5668 0 11.5356C1.50146 12.4929 3.24536 13.0012 5.02588 13.0007Z" fill="#FFFFFF" fill-opacity="1.000000" fill-rule="nonzero"/>
</svg>
