<svg width="22.000000" height="18.000000" viewBox="0 0 22 18" fill="none" xmlns="http://www.w3.org/2000/svg" xmlns:xlink="http://www.w3.org/1999/xlink">
	<desc>
			Created with Pixso.
	</desc>
	<defs/>
	<path id="Vector" d="M6.91064 18C15.2129 18 19.7546 11.0731 19.7546 5.07666C19.7546 4.88281 19.7546 4.68628 19.7463 4.49243C20.6306 3.8479 21.3938 3.04993 22 2.13586C21.1741 2.50256 20.2988 2.74426 19.4026 2.85315C20.3467 2.28491 21.0537 1.39099 21.3923 0.337402C20.5054 0.866455 19.5347 1.23792 18.5227 1.4353C17.8423 0.705688 16.9419 0.222412 15.9612 0.0601807C14.9802 -0.102051 13.9736 0.065918 13.0974 0.538086C12.2209 1.01025 11.5237 1.76025 11.1133 2.67188C10.7031 3.5835 10.6028 4.60583 10.8281 5.58069C9.03345 5.48999 7.27759 5.02063 5.6748 4.20264C4.07178 3.38477 2.65747 2.23682 1.52344 0.83313C0.947754 1.83423 0.772217 3.01843 1.03223 4.14526C1.29199 5.27209 1.96826 6.25708 2.92334 6.90015C2.20752 6.87561 1.50781 6.68213 0.879883 6.33521L0.879883 6.39758C0.881348 7.44629 1.24194 8.46252 1.90137 9.27429C2.56079 10.0861 3.47852 10.6438 4.49902 10.853C4.11157 10.9604 3.71143 11.014 3.30957 11.0122C3.02637 11.0131 2.74365 10.9867 2.46533 10.9333C2.75391 11.8361 3.31543 12.6255 4.07178 13.1908C4.82788 13.7561 5.74072 14.0691 6.68262 14.0859C5.08276 15.3511 3.10669 16.0372 1.07251 16.0339C0.714111 16.0355 0.355957 16.0146 0 15.9717C2.0647 17.297 4.4624 18.0007 6.91064 18Z" fill="#23A6F0" fill-opacity="1.000000" fill-rule="nonzero"/>
</svg>
