<svg width="15.999023" height="11.239014" viewBox="0 0 15.999 11.239" fill="none" xmlns="http://www.w3.org/2000/svg" xmlns:xlink="http://www.w3.org/1999/xlink">
	<desc>
			Created with Pixso.
	</desc>
	<defs/>
	<path id="Vector" d="M8.05103 0L8.13989 0C8.96191 0.00305176 13.127 0.032959 14.25 0.334961C14.5896 0.427124 14.8989 0.606812 15.1472 0.855957C15.3955 1.10522 15.574 1.41516 15.665 1.755C15.7661 2.13501 15.8369 2.63794 15.885 3.15698L15.895 3.26099L15.917 3.521L15.925 3.625C15.99 4.53894 15.998 5.39502 15.999 5.58203L15.999 5.65698C15.998 5.85095 15.989 6.76501 15.917 7.71704L15.9089 7.82202L15.8999 7.92603C15.8501 8.49805 15.7759 9.06604 15.665 9.48401C15.5742 9.82397 15.3958 10.134 15.1475 10.3833C14.8992 10.6326 14.5896 10.8121 14.25 10.9041C13.0901 11.2159 8.68091 11.238 8.07007 11.239L7.92798 11.239C7.6189 11.239 6.34106 11.233 5.00098 11.187L4.83105 11.181L4.7439 11.177L4.573 11.17L4.4021 11.163C3.29199 11.114 2.23511 11.035 1.74805 10.903C1.40845 10.8112 1.09912 10.6318 0.85083 10.3827C0.602295 10.1337 0.423828 9.82373 0.333008 9.48401C0.221924 9.06702 0.147949 8.49805 0.0979004 7.92603L0.0900879 7.82104L0.0820312 7.71704C0.0327148 7.03943 0.00537109 6.36035 0 5.68103L0 5.55798C0.00195312 5.34302 0.0100098 4.59998 0.0639648 3.78003L0.0710449 3.677L0.0739746 3.625L0.0820312 3.521L0.104004 3.26099L0.114014 3.15698C0.162109 2.63794 0.23291 2.13403 0.333984 1.755C0.424805 1.41504 0.603271 1.10486 0.851562 0.855713C1.09985 0.606445 1.40942 0.42688 1.74902 0.334961C2.23608 0.204956 3.29297 0.125 4.40308 0.0749512L4.573 0.0679932L4.74512 0.0620117L4.83105 0.05896L5.00195 0.052002C5.95361 0.0213623 6.90576 0.00439453 7.85791 0.000976562L8.05103 0.000976562L8.05103 0ZM6.3999 3.20996L6.3999 8.02795L10.5569 5.62L6.3999 3.20996Z" fill="#FFFFFF" fill-opacity="1.000000" fill-rule="nonzero"/>
</svg>
